<?xml version="1.0" standalone="no"?>
<!DOCTYPE svg PUBLIC "-//W3C//DTD SVG 20010904//EN"
 "http://www.w3.org/TR/2001/REC-SVG-20010904/DTD/svg10.dtd">
<svg version="1.0" xmlns="http://www.w3.org/2000/svg"
 width="920.000000pt" height="709.000000pt" viewBox="0 0 920.000000 709.000000"
 preserveAspectRatio="xMidYMid meet">

<g transform="translate(0.000000,709.000000) scale(0.100000,-0.100000)"
fill="#000000" stroke="none">
<path d="M5486 6937 c-14 -10 -16 -16 -7 -22 19 -11 113 -35 140 -35 46 0 261
-164 261 -199 0 -6 16 -28 35 -48 34 -36 35 -40 37 -123 2 -47 1 -120 -1 -162
-1 -43 0 -82 3 -87 4 -6 36 2 78 20 98 40 112 39 147 -18 28 -45 29 -48 14
-77 -17 -33 -17 -37 -6 -480 6 -239 5 -318 -5 -352 -14 -50 -39 -68 -74 -55
-13 5 -46 6 -74 4 -46 -5 -54 -2 -86 26 -20 17 -42 31 -51 31 -19 0 -27 -35
-18 -85 6 -35 10 -40 31 -37 14 1 81 3 150 5 88 1 131 6 146 16 34 22 56 68
50 99 -5 22 -9 837 -5 921 1 29 -18 68 -40 77 -9 4 -46 8 -83 8 -86 2 -124 26
-122 77 1 19 3 54 4 79 5 94 -94 251 -205 325 -30 19 -57 40 -60 45 -3 6 -27
10 -52 10 -28 0 -58 8 -77 20 -44 27 -106 35 -130 17z"/>
<path d="M5338 6902 c-9 -4 -26 -19 -37 -33 -11 -15 -33 -29 -48 -33 -34 -7
-67 -36 -113 -100 -19 -26 -47 -62 -62 -81 -30 -35 -34 -58 -17 -102 l11 -28
19 24 c10 13 22 41 26 63 5 34 21 55 94 129 l87 88 69 3 c64 3 68 5 71 27 6
41 -48 64 -100 43z"/>
<path d="M5060 6341 c-15 -29 -12 -67 6 -82 9 -8 25 -33 35 -56 11 -26 32 -51
56 -67 74 -48 104 -79 110 -119 5 -32 2 -41 -17 -54 -19 -13 -21 -22 -16 -54
5 -30 1 -50 -19 -89 -14 -28 -31 -50 -38 -51 -6 0 -23 -3 -37 -5 -14 -2 -45
-4 -70 -5 -25 0 -64 -11 -92 -25 -33 -17 -64 -24 -101 -24 -37 0 -62 -6 -78
-18 -35 -28 -85 -42 -145 -42 -49 0 -55 -3 -84 -37 -17 -21 -36 -55 -42 -76
-14 -47 -73 -102 -97 -90 -9 4 -247 9 -528 10 l-513 3 -17 -26 c-16 -25 -16
-29 0 -74 9 -26 17 -58 17 -71 0 -13 11 -44 25 -68 20 -34 25 -57 25 -111 0
-58 4 -73 24 -97 16 -19 27 -49 32 -82 7 -56 29 -81 72 -81 21 0 23 3 18 28
-4 15 -21 47 -37 71 -21 30 -34 64 -39 102 -5 31 -13 66 -19 78 -7 13 -9 40
-5 72 7 51 6 52 -32 85 -38 32 -39 33 -24 61 9 15 30 38 49 50 l32 22 44 -21
c43 -21 46 -21 104 -5 74 21 91 21 127 2 37 -19 77 -19 116 1 28 15 34 15 68
-1 35 -16 43 -16 109 -1 57 13 80 14 113 5 48 -12 147 -4 186 17 41 21 58 17
72 -16 19 -45 15 -72 -14 -116 -14 -22 -29 -62 -33 -89 -3 -27 -17 -78 -30
-114 -13 -36 -32 -91 -42 -122 -10 -31 -29 -70 -42 -88 -13 -17 -28 -46 -34
-63 l-10 -31 -280 -4 c-154 -2 -296 -3 -315 -4 -19 0 -48 0 -63 1 -42 2 -119
-40 -144 -79 -26 -38 -30 -102 -10 -138 19 -33 85 -82 122 -89 61 -11 140 52
156 127 20 90 15 88 216 88 98 1 192 4 209 7 50 9 69 -8 89 -78 27 -99 102
-161 171 -144 41 11 113 83 120 123 11 61 -9 105 -71 149 -30 21 -57 49 -61
60 -3 13 5 48 21 85 32 81 105 294 105 311 0 8 13 40 29 73 16 33 32 80 36
105 4 25 21 74 39 109 40 81 66 93 135 63 64 -28 143 -52 154 -45 4 2 -3 15
-16 27 -29 27 -45 99 -27 121 20 24 44 17 83 -23 35 -36 37 -41 31 -84 -6 -41
-4 -47 17 -59 40 -21 87 -27 129 -17 54 14 84 4 108 -35 18 -31 19 -44 11
-148 -4 -63 -8 -160 -8 -216 -1 -85 2 -103 14 -103 12 0 15 21 16 123 0 67 4
144 8 170 4 27 4 67 0 90 -11 60 -1 111 31 148 26 32 30 33 92 31 60 -2 68 0
127 39 34 24 67 51 73 62 10 20 4 112 -10 134 -20 31 -87 73 -118 73 -48 0
-44 -25 9 -48 53 -24 73 -73 56 -137 -15 -56 -31 -65 -115 -65 -56 0 -77 -4
-97 -20 -13 -11 -56 -27 -93 -36 -65 -15 -72 -15 -119 3 -38 14 -55 27 -70 56
l-20 37 25 47 c31 59 57 72 162 79 169 12 197 33 118 90 -28 20 -50 37 -50 39
0 1 9 23 20 48 13 29 33 52 55 66 54 32 44 63 -26 76 -38 7 -89 58 -122 120
-8 17 -31 44 -51 62 -26 22 -36 40 -36 60 0 28 -15 53 -32 53 -4 0 -12 -9 -18
-19z m-666 -1682 c46 -36 27 -89 -34 -89 -35 0 -52 66 -24 94 20 21 26 20 58
-5z m-789 -13 c24 -36 3 -76 -40 -76 -37 0 -55 15 -55 46 0 25 34 54 62 54 10
0 25 -11 33 -24z"/>
<path d="M5912 6234 c-27 -19 -33 -94 -6 -94 45 0 63 32 48 88 -7 26 -12 27
-42 6z"/>
<path d="M6020 6147 c-33 -11 -35 -15 -38 -60 -3 -42 1 -51 27 -78 44 -44 78
-37 110 20 l24 43 -21 44 c-24 48 -38 53 -102 31z"/>
<path d="M5824 6109 c-10 -12 -39 -31 -64 -42 -53 -23 -80 -45 -80 -64 0 -18
33 -16 69 5 29 16 31 16 50 -3 10 -11 33 -48 51 -82 18 -35 36 -63 41 -63 5 0
11 12 15 28 3 15 7 32 9 39 2 6 -3 35 -11 65 -7 29 -14 72 -14 96 0 37 -3 42
-23 42 -13 0 -32 -10 -43 -21z"/>
<path d="M5475 5990 c-4 -6 -4 -14 0 -18 8 -9 114 -7 122 2 10 10 0 14 -58 21
-39 5 -59 3 -64 -5z"/>
<path d="M5877 5754 c-10 -10 -9 -62 2 -68 11 -7 20 35 11 58 -3 9 -9 14 -13
10z"/>
<path d="M5875 5580 c-9 -14 4 -52 16 -45 12 8 12 55 0 55 -6 0 -13 -5 -16
-10z"/>
<path d="M5880 5466 c0 -22 3 -27 11 -19 8 8 8 16 0 30 -9 16 -10 14 -11 -11z"/>
<path d="M3623 5273 c-18 -7 -16 -21 5 -32 23 -12 62 -3 62 14 0 20 -37 31
-67 18z"/>
<path d="M4240 5260 c-13 -9 -13 -11 0 -20 31 -20 69 -8 49 17 -13 15 -28 16
-49 3z"/>
<path d="M5372 5177 c-11 -13 -10 -222 1 -233 4 -4 13 -2 20 5 10 7 16 43 20
109 6 114 -9 158 -41 119z"/>
<path d="M5875 5111 c-7 -22 4 -53 16 -45 12 7 12 64 0 64 -5 0 -12 -8 -16
-19z"/>
<path d="M5880 4975 c0 -8 5 -15 10 -15 6 0 10 7 10 15 0 8 -4 15 -10 15 -5 0
-10 -7 -10 -15z"/>
<path d="M5351 4890 c-28 -24 -43 -25 -80 -5 -27 14 -30 13 -69 -20 -22 -19
-44 -35 -49 -35 -5 0 -20 -8 -33 -17 l-25 -18 50 -7 c28 -4 66 -10 86 -14 26
-4 47 0 77 15 57 29 116 28 154 -4 16 -14 36 -25 43 -25 23 0 26 -18 10 -57
-15 -37 -15 -39 6 -55 26 -22 58 -23 105 -3 38 16 40 32 8 49 -51 28 -87 61
-96 88 -6 16 -22 35 -37 42 -14 8 -43 30 -64 50 -44 41 -53 43 -86 16z"/>
<path d="M5874 4836 c-8 -21 3 -49 16 -41 5 3 10 15 10 25 0 25 -18 36 -26 16z"/>
<path d="M5033 4708 c-17 -27 -28 -62 -31 -94 -4 -46 -2 -53 23 -72 29 -23 85
-30 85 -11 0 6 -9 22 -20 36 -25 32 -25 51 0 78 20 21 20 23 3 63 -10 23 -21
42 -25 42 -4 0 -20 -19 -35 -42z"/>
<path d="M5165 4690 c-17 -18 -17 -25 -6 -56 11 -32 11 -40 -5 -70 -10 -18
-15 -37 -10 -41 12 -12 105 -8 118 5 8 8 5 18 -11 38 -29 36 -26 56 9 77 37
22 37 28 1 50 -39 23 -74 22 -96 -3z"/>
<path d="M5811 4694 l-34 -14 32 -34 c34 -35 36 -61 6 -86 -8 -7 -15 -21 -15
-31 0 -27 59 -26 88 1 18 17 21 31 21 83 0 34 -3 70 -5 80 -7 21 -46 22 -93 1z"/>
<path d="M5351 4681 c-24 -15 -1 -31 45 -31 38 0 45 3 42 18 -4 19 -63 29 -87
13z"/>
<path d="M5705 4680 c-9 -15 3 -30 24 -30 21 0 44 23 34 33 -10 11 -51 8 -58
-3z"/>
<path d="M5440 4530 c0 -5 18 -10 41 -10 24 0 38 4 34 10 -3 6 -22 10 -41 10
-19 0 -34 -4 -34 -10z"/>
<path d="M5705 4530 c-3 -5 -2 -10 4 -10 5 0 13 5 16 10 3 6 2 10 -4 10 -5 0
-13 -4 -16 -10z"/>
<path d="M1085 4301 c-11 -5 -42 -11 -70 -15 -31 -5 -60 -17 -75 -31 -14 -12
-35 -26 -47 -29 -12 -4 -49 -36 -81 -71 -107 -117 -138 -271 -89 -441 17 -57
36 -96 71 -141 26 -35 50 -63 54 -63 4 0 23 -14 42 -30 19 -17 44 -33 55 -36
11 -4 31 -14 45 -24 14 -9 41 -23 62 -29 20 -7 57 -31 83 -55 40 -38 45 -47
39 -72 -12 -51 -27 -59 -117 -59 -57 0 -91 5 -112 16 -16 9 -48 26 -69 38 -22
11 -52 32 -67 47 -36 34 -57 28 -91 -26 -54 -87 -64 -256 -19 -318 12 -18 39
-42 59 -53 21 -11 51 -29 68 -40 20 -12 57 -21 100 -25 38 -3 96 -10 129 -15
47 -8 86 -7 170 6 138 20 139 20 201 66 117 86 176 191 205 361 12 72 12 74
-24 178 -35 100 -40 108 -103 167 -37 34 -83 70 -103 79 -20 9 -47 24 -61 34
-14 9 -39 22 -55 27 -27 9 -72 36 -132 78 -35 25 -30 67 12 104 46 40 89 41
208 0 107 -35 128 -31 147 28 7 21 21 55 32 76 23 46 40 131 32 162 -9 35 -85
85 -131 85 -21 0 -65 7 -98 15 -64 15 -237 19 -270 6z"/>
<path d="M1767 4278 c-40 -31 -61 -182 -37 -283 15 -67 39 -79 148 -72 96 7
136 -2 147 -32 8 -20 7 -931 -1 -969 -4 -19 1 -36 14 -52 20 -24 24 -25 179
-28 143 -3 161 -1 182 15 l23 19 -1 506 c-2 454 0 507 14 522 20 20 18 20 142
20 136 1 137 2 141 146 5 128 -2 174 -29 201 -18 18 -37 19 -462 19 -339 0
-447 -3 -460 -12z"/>
<path d="M3132 4278 c-37 -10 -49 -34 -72 -136 -24 -113 -55 -230 -80 -312
-11 -36 -27 -97 -35 -136 -8 -40 -21 -89 -29 -110 -8 -22 -20 -68 -26 -103 -6
-35 -20 -87 -30 -115 -10 -28 -24 -80 -30 -116 -7 -36 -17 -78 -24 -95 -7 -16
-21 -66 -31 -110 -9 -44 -24 -92 -31 -107 -20 -39 -17 -65 9 -80 24 -14 242
-18 289 -5 43 11 77 74 88 162 10 82 17 100 49 129 18 17 39 19 149 21 189 2
200 -5 222 -139 12 -72 41 -146 67 -167 18 -16 214 -24 308 -14 55 6 68 10 77
29 8 18 5 32 -10 62 -11 21 -23 64 -27 94 -4 30 -15 74 -25 96 -10 23 -23 75
-30 115 -7 41 -21 97 -31 124 -11 28 -24 79 -30 115 -5 36 -18 88 -28 115 -10
28 -24 84 -31 125 -7 41 -19 88 -27 103 -8 16 -23 73 -34 127 -10 54 -25 116
-33 137 -8 21 -20 65 -26 98 -17 96 -9 93 -278 97 -127 2 -244 0 -260 -4z
m242 -460 c9 -12 16 -36 16 -53 0 -35 25 -160 46 -226 19 -63 18 -79 -8 -106
-19 -20 -31 -23 -100 -23 -73 0 -79 2 -95 26 -14 22 -15 30 -4 58 7 17 19 60
26 96 7 36 19 79 25 95 6 17 16 52 21 79 14 77 43 97 73 54z"/>
<path d="M4179 4276 c-15 -9 -29 -26 -33 -39 -3 -13 -6 -325 -6 -693 l-1 -669
23 -18 c20 -17 39 -18 174 -15 134 3 154 5 174 23 16 15 20 27 16 50 -3 16 -6
112 -7 212 -3 198 1 213 51 213 26 0 60 -26 60 -46 0 -5 7 -22 16 -39 9 -16
25 -58 35 -92 11 -34 24 -65 29 -68 4 -3 16 -29 26 -58 14 -44 38 -97 73 -167
5 -8 31 -21 60 -28 45 -11 60 -11 106 3 30 8 66 26 82 39 15 13 37 26 48 30
11 4 40 25 64 47 34 30 44 47 44 71 0 18 -6 34 -16 40 -10 5 -29 30 -42 56
-14 26 -39 67 -55 92 -16 25 -37 59 -46 75 -9 17 -31 53 -49 80 -47 71 -51 90
-23 118 13 13 28 26 34 28 21 9 74 91 94 145 12 33 28 96 37 142 14 76 14 87
-1 126 -9 23 -16 49 -16 59 0 9 -11 40 -24 70 -28 64 -101 131 -198 182 l-67
35 -318 5 c-273 5 -322 4 -344 -9z m501 -365 c47 -21 70 -70 70 -145 0 -56 -2
-61 -44 -102 -41 -42 -46 -44 -103 -44 -79 0 -98 14 -89 66 4 21 7 80 6 130
-1 83 1 93 20 107 26 18 88 13 140 -12z"/>
<path d="M5391 4271 l-21 -21 0 -675 1 -675 23 -27 24 -28 267 -3 c339 -4 419
5 517 54 101 51 137 85 175 168 38 82 43 151 17 249 -30 115 -74 178 -160 227
-42 25 -54 37 -54 56 0 13 5 24 10 24 25 0 101 86 130 147 31 63 32 69 28 172
-3 103 -4 108 -40 161 -47 72 -89 109 -166 149 l-64 32 -332 6 c-332 6 -333 6
-355 -16z m523 -330 c54 -37 65 -56 73 -119 5 -44 3 -49 -28 -77 -74 -66 -176
-88 -199 -44 -17 31 -9 241 10 264 21 26 87 15 144 -24z m-21 -505 c55 -24 89
-69 95 -126 4 -49 3 -52 -39 -92 -75 -69 -153 -89 -183 -46 -19 26 -23 227 -6
259 13 23 84 26 133 5z"/>
<path d="M7792 4274 c-12 -8 -22 -22 -22 -31 0 -13 64 -157 93 -208 6 -11 25
-47 42 -80 17 -33 36 -69 43 -80 6 -11 18 -36 27 -55 8 -19 22 -46 30 -60 8
-14 22 -41 30 -60 8 -19 22 -46 30 -60 8 -14 21 -38 28 -55 25 -51 77 -147 92
-169 12 -17 15 -68 15 -277 0 -321 -18 -294 194 -294 83 0 163 3 178 8 58 16
58 16 58 291 l0 252 180 364 c100 201 185 372 191 380 5 8 18 29 29 45 11 17
20 42 20 57 0 42 -45 52 -224 46 -83 -3 -159 -9 -169 -13 -26 -11 -71 -82 -92
-144 -10 -30 -26 -68 -35 -85 -10 -17 -21 -42 -25 -56 -34 -125 -78 -191 -108
-161 -15 15 -55 123 -73 196 -9 33 -22 70 -29 82 -8 11 -19 41 -26 66 -13 55
-53 96 -105 108 -22 4 -109 9 -194 9 -125 0 -160 -3 -178 -16z"/>
<path d="M6552 4271 c-7 -4 -16 -23 -20 -42 -4 -19 -5 -261 -2 -539 l5 -505
37 -71 c41 -80 132 -177 193 -206 22 -11 56 -28 75 -38 37 -20 196 -45 285
-44 75 0 236 23 260 37 13 7 42 23 66 36 79 43 145 107 182 179 54 102 59 171
53 707 -4 415 -6 458 -22 476 -16 17 -32 19 -200 19 -183 0 -184 0 -199 -24
-14 -21 -16 -81 -14 -502 l2 -477 -34 -29 c-72 -60 -164 -57 -231 8 -35 35
-39 43 -34 74 3 19 6 233 6 474 1 400 0 440 -16 457 -16 17 -33 19 -198 19
-100 0 -187 -4 -194 -9z"/>
<path d="M3438 2363 c-8 -10 -18 -27 -21 -38 -3 -11 -15 -45 -26 -75 -26 -70
-29 -204 -5 -238 21 -30 66 -52 107 -52 26 0 37 6 47 25 15 28 64 35 73 11 5
-14 -64 -191 -82 -209 -4 -4 -38 -8 -75 -8 -49 -1 -72 3 -84 14 -21 22 0 47
38 47 41 0 60 10 60 30 0 22 -19 30 -70 30 -30 0 -43 -6 -59 -27 -46 -57 -36
-110 30 -162 l39 -32 -4 -117 c-3 -72 0 -122 6 -129 10 -13 7 -53 -6 -84 -9
-21 18 -49 49 -49 12 0 32 8 43 18 31 26 125 213 113 225 -15 15 -40 1 -51
-28 -8 -21 -16 -26 -38 -23 -27 3 -27 3 -23 73 4 84 9 94 76 165 77 81 125
188 125 279 1 27 13 77 31 121 16 41 32 94 36 118 4 32 14 49 34 65 32 23 38
51 13 61 -9 3 -39 6 -69 6 -65 0 -80 -15 -71 -69 4 -30 -1 -56 -25 -117 -41
-103 -35 -96 -126 -145 -29 -15 -65 -1 -89 36 -17 25 -16 28 4 71 12 24 22 58
22 73 0 44 8 58 47 82 24 15 33 27 31 43 -4 29 -76 36 -100 9z"/>
<path d="M4749 2364 c-10 -12 -10 -24 -1 -58 6 -25 9 -72 5 -112 -4 -49 -1
-79 9 -104 13 -31 13 -39 0 -67 -20 -42 -4 -63 48 -63 35 0 40 4 72 58 19 31
40 72 46 90 6 18 20 45 32 59 11 14 20 37 20 50 0 37 -33 25 -46 -16 -12 -38
-36 -55 -64 -46 -18 6 -20 14 -17 72 3 58 7 69 30 88 32 25 34 41 8 55 -31 16
-126 13 -142 -6z"/>
<path d="M5040 2353 c-29 -27 -56 -88 -42 -97 4 -2 22 -7 39 -11 42 -9 47 -18
32 -59 -9 -25 -9 -44 -2 -75 7 -24 8 -56 3 -77 -11 -49 14 -74 73 -74 49 0 62
11 93 75 11 22 39 75 62 118 23 42 42 86 42 97 0 10 14 35 30 53 40 47 40 77
0 77 -36 0 -80 -39 -80 -70 0 -11 -8 -37 -19 -58 -10 -20 -26 -63 -35 -95 -13
-46 -22 -60 -44 -68 -25 -10 -92 -4 -92 8 0 3 11 18 25 35 29 35 32 65 8 107
-18 30 -17 30 10 59 45 47 31 82 -35 82 -27 0 -46 -8 -68 -27z"/>
<path d="M6676 2348 c-8 -13 -17 -54 -21 -93 -4 -38 -13 -83 -21 -99 -20 -42
-18 -48 18 -44 30 3 34 8 58 73 15 39 34 85 44 104 10 20 15 43 12 57 -9 33
-69 34 -90 2z"/>
<path d="M3897 2217 c-31 -31 -49 -59 -62 -100 l-17 -56 29 -48 c35 -56 71
-69 159 -58 50 6 57 10 79 46 16 24 35 41 53 45 27 7 82 50 82 66 0 4 -10 8
-22 8 -33 0 -42 9 -62 60 -29 73 -39 80 -122 80 -72 0 -73 0 -117 -43z m143
-23 c26 -11 47 -28 57 -47 15 -30 15 -32 -8 -49 -13 -10 -39 -32 -56 -48 -23
-22 -43 -30 -68 -30 -44 0 -79 31 -69 62 19 60 38 90 67 108 38 24 28 23 77 4z"/>
<path d="M4220 2245 c-15 -18 -6 -61 15 -69 40 -15 90 39 65 69 -16 19 -64 19
-80 0z"/>
<path d="M4410 2240 c-15 -15 -20 -33 -20 -72 0 -88 -15 -125 -55 -138 -20 -7
-53 -9 -76 -5 -38 7 -69 -5 -69 -26 0 -26 42 -49 89 -49 114 0 148 27 180 146
10 38 24 83 32 101 10 26 10 34 0 47 -18 22 -57 20 -81 -4z"/>
<path d="M5536 2244 c-9 -8 -16 -20 -16 -25 0 -5 -11 -15 -25 -21 -28 -13 -44
-53 -27 -70 8 -8 20 -2 41 21 23 24 37 32 58 29 31 -3 33 -17 18 -104 -9 -48
10 -74 55 -74 27 0 28 2 28 43 -1 23 5 73 13 111 13 67 13 69 -10 87 -30 24
-113 26 -135 3z"/>
<path d="M6053 2234 c-10 -15 -20 -51 -23 -78 -4 -46 -8 -53 -37 -65 -24 -11
-34 -24 -43 -57 -15 -52 -3 -74 40 -74 40 0 60 28 60 86 0 54 15 105 43 148
10 15 17 35 15 44 -5 28 -35 25 -55 -4z"/>
<path d="M6208 2253 c-33 -9 -28 -33 13 -60 32 -21 39 -31 34 -47 -4 -12 -9
-35 -12 -53 -3 -18 -18 -43 -35 -58 -41 -37 -36 -69 12 -73 63 -4 66 1 73 155
2 51 10 59 68 76 45 13 64 41 37 58 -13 9 -159 10 -190 2z"/>
<path d="M5839 2231 c-13 -11 -23 -34 -28 -66 -7 -54 -29 -98 -74 -151 l-29
-34 27 -10 c64 -24 88 -8 95 67 l5 57 53 -3 c44 -2 52 0 52 15 0 17 -13 63
-30 110 -11 29 -45 36 -71 15z"/>
<path d="M5429 2100 c-9 -5 -19 -20 -22 -32 -4 -13 -20 -31 -37 -42 -41 -24
-39 -60 5 -64 24 -2 38 6 74 42 42 43 43 46 31 75 -13 32 -24 37 -51 21z"/>
<path d="M6590 2005 c-17 -20 -6 -43 25 -51 32 -8 75 10 75 30 0 33 -77 49
-100 21z"/>
<path d="M3983 1718 c-13 -6 -23 -16 -23 -23 0 -7 -11 -29 -25 -49 -14 -20
-25 -51 -25 -69 0 -18 -7 -43 -15 -57 -8 -14 -22 -40 -31 -57 -22 -40 -47 -50
-80 -29 -23 16 -24 18 -9 46 18 35 19 63 3 107 -11 30 -10 35 15 61 49 51 33
72 -54 72 -48 0 -50 -1 -79 -47 -39 -61 -36 -78 13 -80 21 0 41 -4 44 -7 3 -3
7 -36 9 -73 2 -37 3 -72 4 -78 0 -5 -2 -32 -6 -59 -6 -41 -4 -51 11 -63 27
-19 89 -17 106 5 26 30 89 140 89 154 0 7 14 33 30 57 17 24 30 57 30 72 0 17
7 32 19 38 10 6 24 24 31 42 11 26 11 32 -1 40 -18 11 -28 10 -56 -3z"/>
<path d="M4758 1721 c-63 -7 -59 -3 -138 -119 -45 -67 -50 -79 -50 -129 0 -40
6 -66 23 -92 12 -19 27 -45 32 -56 9 -17 23 -21 109 -25 80 -4 101 -8 110 -22
9 -14 6 -21 -12 -33 -43 -31 -18 -75 32 -55 38 14 65 62 72 126 9 80 45 149
84 162 36 13 41 46 9 62 -16 9 -30 8 -59 -4 -22 -8 -55 -15 -75 -14 -44 2 -53
-7 -32 -30 21 -23 22 -54 2 -92 -15 -29 -17 -30 -94 -30 -101 0 -108 7 -93 95
12 72 73 185 101 185 156 2 231 15 231 41 0 26 -141 43 -252 30z"/>
<path d="M6726 1698 c-9 -12 -16 -41 -16 -64 0 -22 -9 -67 -20 -100 -27 -80
-26 -86 11 -82 29 3 33 9 65 93 20 50 39 94 45 100 13 13 11 49 -3 63 -20 20
-65 14 -82 -10z"/>
<path d="M4122 1603 c-28 -6 -29 -8 -37 -114 -6 -79 -9 -88 -31 -98 -19 -8
-24 -18 -24 -45 0 -22 6 -36 16 -40 9 -3 64 -6 124 -6 85 0 110 3 120 15 21
26 -3 39 -86 46 -72 6 -119 27 -101 46 4 3 43 9 87 12 86 7 112 20 90 46 -8
10 -29 15 -60 15 -61 0 -80 7 -80 31 0 21 16 26 109 34 35 3 67 8 72 11 14 8
11 22 -8 33 -21 11 -158 21 -191 14z"/>
<path d="M5170 1600 c-40 -16 -60 -59 -60 -128 0 -50 -4 -66 -25 -90 -30 -35
-32 -58 -7 -71 29 -15 66 9 70 44 5 40 19 55 52 55 33 0 80 -41 80 -70 0 -73
87 -124 110 -65 6 14 25 32 42 40 18 8 48 28 67 44 30 26 33 33 27 65 -12 62
-24 57 -104 -43 -36 -45 -56 -50 -89 -22 -27 22 -28 29 -9 67 20 38 11 47 -38
41 -44 -6 -126 22 -126 43 0 17 46 30 105 30 49 0 57 -3 76 -30 18 -23 26 -27
41 -19 25 13 23 52 -5 85 -21 25 -31 27 -103 30 -43 2 -90 -1 -104 -6z"/>
<path d="M6251 1598 c-37 -13 -25 -41 29 -66 46 -21 52 -22 79 -7 17 8 38 15
49 15 41 0 56 44 20 56 -31 10 -152 12 -177 2z"/>
<path d="M5550 1553 c-34 -54 -26 -82 13 -45 27 25 46 28 71 9 16 -12 16 -19
5 -73 -10 -52 -10 -63 5 -92 13 -25 23 -32 39 -30 20 3 22 9 23 58 0 30 4 85
8 121 10 84 -2 99 -80 99 -54 0 -55 0 -84 -47z"/>
<path d="M6080 1585 c-15 -17 -4 -129 11 -119 18 11 59 103 53 118 -8 20 -48
21 -64 1z"/>
<path d="M5887 1578 c-21 -16 -47 -79 -47 -113 0 -36 -17 -64 -58 -101 -20
-17 -32 -35 -29 -41 11 -18 61 -25 90 -14 24 9 27 16 27 55 0 51 12 64 64 68
l38 2 -7 56 c-10 86 -38 117 -78 88z"/>
<path d="M6282 1460 c-12 -11 -22 -29 -22 -38 0 -10 -7 -27 -15 -38 -29 -38
-13 -84 30 -84 37 0 53 29 56 105 4 78 -8 93 -49 55z"/>
<path d="M5988 1430 c-2 -6 -1 -31 0 -56 3 -34 10 -49 28 -61 22 -14 26 -14
50 2 23 15 25 21 19 53 -12 70 -14 72 -55 72 -21 0 -40 -5 -42 -10z"/>
<path d="M6630 1345 c-19 -23 5 -45 50 -45 21 0 43 7 50 15 19 23 -5 45 -50
45 -21 0 -43 -7 -50 -15z"/>
<path d="M5423 1233 c-23 -9 -15 -42 11 -49 28 -7 66 11 66 30 0 22 -44 33
-77 19z"/>
</g>
</svg>
